<svg xmlns="http://www.w3.org/2000/svg" xmlns:xlink="http://www.w3.org/1999/xlink" width="600" height="400" viewBox="0 0 600 400"><rect width="100%" height="100%" fill="#DDDDDD"/><path d="M146.86 178.91L126.64 178.91L126.64 192.39L143.71 192.39L143.71 199.17L126.64 199.17L126.64 217.72L118.13 217.72L118.13 172.17L146.86 172.17L146.86 178.91ZM166.87 184.90L166.87 184.90Q170.46 184.90 173.40 186.06Q176.35 187.23 178.44 189.37Q180.54 191.51 181.67 194.60Q182.80 197.68 182.80 201.50L182.80 201.50Q182.80 205.34 181.67 208.43Q180.54 211.51 178.44 213.69Q176.35 215.86 173.40 217.03Q170.46 218.19 166.87 218.19L166.87 218.19Q163.24 218.19 160.28 217.03Q157.32 215.86 155.23 213.69Q153.13 211.51 151.98 208.43Q150.83 205.34 150.83 201.50L150.83 201.50Q150.83 197.68 151.98 194.60Q153.13 191.51 155.23 189.37Q157.32 187.23 160.28 186.06Q163.24 184.90 166.87 184.90ZM166.87 212.21L166.87 212.21Q170.90 212.21 172.83 209.50Q174.77 206.79 174.77 201.56L174.77 201.56Q174.77 196.33 172.83 193.59Q170.90 190.85 166.87 190.85L166.87 190.85Q162.77 190.85 160.80 193.61Q158.83 196.36 158.83 201.56L158.83 201.56Q158.83 206.76 160.80 209.48Q162.77 212.21 166.87 212.21ZM199.53 218.22L199.53 218.22Q195.31 218.22 193.06 215.84Q190.81 213.47 190.81 209.28L190.81 209.28L190.81 191.23L187.50 191.23Q186.87 191.23 186.43 190.82Q185.99 190.41 185.99 189.59L185.99 189.59L185.99 186.50L191.18 185.65L192.82 176.83Q192.98 176.20 193.42 175.86Q193.86 175.51 194.55 175.51L194.55 175.51L198.59 175.51L198.59 185.68L207.22 185.68L207.22 191.23L198.59 191.23L198.59 208.74Q198.59 210.25 199.33 211.10Q200.07 211.95 201.36 211.95L201.36 211.95Q202.08 211.95 202.57 211.78Q203.06 211.61 203.42 211.42Q203.78 211.23 204.07 211.06Q204.35 210.88 204.63 210.88L204.63 210.88Q204.98 210.88 205.20 211.06Q205.42 211.23 205.67 211.58L205.67 211.58L208.00 215.36Q206.30 216.77 204.10 217.50Q201.89 218.22 199.53 218.22ZM226.49 184.90L226.49 184.90Q230.09 184.90 233.03 186.06Q235.98 187.23 238.07 189.37Q240.17 191.51 241.30 194.60Q242.43 197.68 242.43 201.50L242.43 201.50Q242.43 205.34 241.30 208.43Q240.17 211.51 238.07 213.69Q235.98 215.86 233.03 217.03Q230.09 218.19 226.49 218.19L226.49 218.19Q222.87 218.19 219.91 217.03Q216.95 215.86 214.86 213.69Q212.76 211.51 211.61 208.43Q210.46 205.34 210.46 201.50L210.46 201.50Q210.46 197.68 211.61 194.60Q212.76 191.51 214.86 189.37Q216.95 187.23 219.91 186.06Q222.87 184.90 226.49 184.90ZM226.49 212.21L226.49 212.21Q230.53 212.21 232.46 209.50Q234.40 206.79 234.40 201.56L234.40 201.56Q234.40 196.33 232.46 193.59Q230.53 190.85 226.49 190.85L226.49 190.85Q222.40 190.85 220.43 193.61Q218.46 196.36 218.46 201.56L218.46 201.56Q218.46 206.76 220.43 209.48Q222.40 212.21 226.49 212.21ZM260.20 200.77L260.20 200.77Q261.65 200.77 262.72 200.38Q263.79 199.98 264.50 199.29Q265.21 198.60 265.57 197.62Q265.93 196.65 265.93 195.48L265.93 195.48Q265.93 193.09 264.50 191.68Q263.07 190.28 260.20 190.28L260.20 190.28Q257.33 190.28 255.90 191.68Q254.47 193.09 254.47 195.48L254.47 195.48Q254.47 196.61 254.83 197.59Q255.19 198.57 255.90 199.28Q256.61 199.98 257.70 200.38Q258.78 200.77 260.20 200.77ZM268.99 219.17L268.99 219.17Q268.99 218.22 268.42 217.62Q267.85 217.03 266.88 216.69Q265.90 216.36 264.59 216.21Q263.29 216.05 261.82 215.97Q260.36 215.89 258.80 215.83Q257.24 215.77 255.76 215.58L255.76 215.58Q254.47 216.30 253.66 217.28Q252.86 218.25 252.86 219.55L252.86 219.55Q252.86 220.40 253.29 221.14Q253.71 221.88 254.64 222.41Q255.57 222.95 257.05 223.25Q258.53 223.55 260.67 223.55L260.67 223.55Q262.85 223.55 264.42 223.22Q266.00 222.88 267.02 222.30Q268.04 221.72 268.52 220.92Q268.99 220.11 268.99 219.17ZM267.44 186.50L276.74 186.50L276.74 189.40Q276.74 190.79 275.07 191.10L275.07 191.10L272.17 191.64Q272.83 193.31 272.83 195.29L272.83 195.29Q272.83 197.68 271.87 199.62Q270.91 201.56 269.21 202.91Q267.51 204.27 265.19 205.01Q262.88 205.75 260.20 205.75L260.20 205.75Q259.25 205.75 258.37 205.65Q257.49 205.56 256.64 205.40L256.64 205.40Q255.13 206.32 255.13 207.45L255.13 207.45Q255.13 208.43 256.03 208.88Q256.92 209.34 258.40 209.53Q259.88 209.72 261.77 209.76Q263.66 209.81 265.65 209.97Q267.63 210.13 269.52 210.52Q271.41 210.91 272.89 211.77Q274.37 212.62 275.27 214.08Q276.17 215.55 276.17 217.84L276.17 217.84Q276.17 219.99 275.12 222.00Q274.06 224.02 272.06 225.59Q270.06 227.17 267.15 228.13Q264.23 229.09 260.51 229.09L260.51 229.09Q256.86 229.09 254.15 228.38Q251.44 227.67 249.65 226.49Q247.85 225.31 246.97 223.77Q246.09 222.22 246.09 220.55L246.09 220.55Q246.09 218.29 247.46 216.76Q248.83 215.23 251.22 214.32L251.22 214.32Q249.93 213.66 249.17 212.55Q248.42 211.45 248.42 209.65L248.42 209.65Q248.42 208.93 248.69 208.16Q248.95 207.39 249.47 206.63Q249.99 205.87 250.78 205.20Q251.57 204.52 252.64 203.98L252.64 203.98Q250.18 202.66 248.78 200.46Q247.38 198.25 247.38 195.29L247.38 195.29Q247.38 192.90 248.34 190.96Q249.30 189.02 251.02 187.65Q252.73 186.28 255.08 185.56Q257.43 184.83 260.20 184.83L260.20 184.83Q262.28 184.83 264.11 185.26Q265.93 185.68 267.44 186.50L267.44 186.50ZM260.96 181.15L260.96 181.15Q258.25 181.15 256.44 180.44Q254.62 179.73 253.51 178.50Q252.39 177.27 251.92 175.63Q251.44 174.00 251.44 172.17L251.44 172.17L256.89 172.17Q256.89 173.11 257.07 173.87Q257.24 174.63 257.70 175.15Q258.15 175.67 258.94 175.95Q259.73 176.23 260.96 176.23L260.96 176.23Q262.18 176.23 262.97 175.95Q263.76 175.67 264.22 175.15Q264.67 174.63 264.85 173.87Q265.02 173.11 265.02 172.17L265.02 172.17L270.47 172.17Q270.47 174.00 270.00 175.63Q269.52 177.27 268.41 178.50Q267.29 179.73 265.46 180.44Q263.63 181.15 260.96 181.15ZM288.52 187.35L288.99 191.01Q290.50 188.11 292.58 186.45Q294.66 184.80 297.50 184.80L297.50 184.80Q299.73 184.80 301.09 185.78L301.09 185.78L300.58 191.61Q300.43 192.17 300.13 192.41Q299.83 192.64 299.32 192.64L299.32 192.64Q298.85 192.64 297.92 192.49Q296.99 192.33 296.11 192.33L296.11 192.33Q294.82 192.33 293.81 192.71Q292.80 193.09 292.00 193.79Q291.20 194.50 290.58 195.51Q289.97 196.52 289.43 197.81L289.43 197.81L289.43 217.72L281.65 217.72L281.65 185.40L286.22 185.40Q287.42 185.40 287.89 185.82Q288.36 186.25 288.52 187.35L288.52 187.35ZM322.22 209.37L322.22 203.92Q318.85 204.08 316.55 204.50Q314.25 204.93 312.87 205.59Q311.48 206.25 310.88 207.13Q310.28 208.02 310.28 209.06L310.28 209.06Q310.28 211.10 311.50 211.99Q312.71 212.87 314.66 212.87L314.66 212.87Q317.06 212.87 318.81 212.00Q320.55 211.14 322.22 209.37L322.22 209.37ZM305.78 192.39L304.39 189.90Q309.97 184.80 317.81 184.80L317.81 184.80Q320.65 184.80 322.88 185.73Q325.12 186.66 326.66 188.31Q328.21 189.97 329.01 192.27Q329.81 194.57 329.81 197.31L329.81 197.31L329.81 217.72L326.29 217.72Q325.18 217.72 324.59 217.39Q323.99 217.06 323.64 216.05L323.64 216.05L322.95 213.72Q321.72 214.82 320.55 215.66Q319.39 216.49 318.13 217.06Q316.87 217.62 315.44 217.92Q314.00 218.22 312.27 218.22L312.27 218.22Q310.22 218.22 308.49 217.67Q306.76 217.12 305.50 216.02Q304.24 214.92 303.54 213.28Q302.85 211.64 302.85 209.47L302.85 209.47Q302.85 208.24 303.26 207.02Q303.67 205.81 304.60 204.71Q305.53 203.61 307.01 202.63Q308.49 201.65 310.65 200.93Q312.80 200.20 315.67 199.75Q318.54 199.29 322.22 199.20L322.22 199.20L322.22 197.31Q322.22 194.06 320.84 192.50Q319.45 190.94 316.84 190.94L316.84 190.94Q314.95 190.94 313.70 191.38Q312.46 191.83 311.51 192.38Q310.57 192.93 309.80 193.37Q309.02 193.81 308.08 193.81L308.08 193.81Q307.26 193.81 306.69 193.38Q306.13 192.96 305.78 192.39L305.78 192.39ZM347.17 217.72L339.39 217.72L339.39 191.26L336.59 190.82Q335.67 190.63 335.12 190.17Q334.57 189.72 334.57 188.86L334.57 188.86L334.57 185.68L339.39 185.68L339.39 183.29Q339.39 180.52 340.23 178.31Q341.06 176.11 342.62 174.56Q344.18 173.02 346.42 172.20Q348.65 171.38 351.46 171.38L351.46 171.38Q353.69 171.38 355.61 171.98L355.61 171.98L355.46 175.89Q355.42 176.33 355.20 176.60Q354.98 176.86 354.62 177.00Q354.26 177.15 353.79 177.19Q353.31 177.24 352.78 177.24L352.78 177.24Q351.39 177.24 350.31 177.54Q349.22 177.84 348.46 178.58Q347.71 179.32 347.31 180.53Q346.92 181.75 346.92 183.54L346.92 183.54L346.92 185.68L355.33 185.68L355.33 191.23L347.17 191.23L347.17 217.72ZM412.41 172.17L395.81 200.08L395.81 217.72L387.37 217.72L387.37 200.08L370.76 172.17L378.23 172.17Q379.33 172.17 379.98 172.71Q380.62 173.24 381.07 174.06L381.07 174.06L389.38 189.27Q390.11 190.63 390.66 191.83Q391.21 193.02 391.65 194.22L391.65 194.22Q392.06 193.02 392.59 191.83Q393.13 190.63 393.82 189.27L393.82 189.27L402.11 174.06Q402.45 173.37 403.15 172.77Q403.84 172.17 404.91 172.17L404.91 172.17L412.41 172.17ZM430.14 184.90L430.14 184.90Q433.73 184.90 436.68 186.06Q439.62 187.23 441.72 189.37Q443.81 191.51 444.95 194.60Q446.08 197.68 446.08 201.50L446.08 201.50Q446.08 205.34 444.95 208.43Q443.81 211.51 441.72 213.69Q439.62 215.86 436.68 217.03Q433.73 218.19 430.14 218.19L430.14 218.19Q426.52 218.19 423.56 217.03Q420.60 215.86 418.50 213.69Q416.41 211.51 415.26 208.43Q414.11 205.34 414.11 201.50L414.11 201.50Q414.11 197.68 415.26 194.60Q416.41 191.51 418.50 189.37Q420.60 187.23 423.56 186.06Q426.52 184.90 430.14 184.90ZM430.14 212.21L430.14 212.21Q434.17 212.21 436.11 209.50Q438.05 206.79 438.05 201.56L438.05 201.56Q438.05 196.33 436.11 193.59Q434.17 190.85 430.14 190.85L430.14 190.85Q426.05 190.85 424.08 193.61Q422.11 196.36 422.11 201.56L422.11 201.56Q422.11 206.76 424.08 209.48Q426.05 212.21 430.14 212.21ZM452.03 170.91L459.82 170.91L459.82 197.72L461.26 197.72Q462.05 197.72 462.51 197.51Q462.97 197.31 463.44 196.68L463.44 196.68L471.47 186.75Q471.97 186.09 472.59 185.75Q473.20 185.40 474.18 185.40L474.18 185.40L481.30 185.40L471.25 197.40Q470.18 198.82 468.92 199.57L468.92 199.57Q469.58 200.05 470.10 200.68Q470.62 201.31 471.09 202.03L471.09 202.03L481.87 217.72L474.84 217.72Q473.93 217.72 473.27 217.42Q472.60 217.12 472.16 216.33L472.16 216.33L463.91 204.08Q463.47 203.35 463.00 203.13Q462.52 202.91 461.58 202.91L461.58 202.91L459.82 202.91L459.82 217.72L452.03 217.72L452.03 170.91Z" fill="#999999"/></svg>